<?xml version="1.0" encoding="UTF-8"?><svg id="Layer_2" xmlns="http://www.w3.org/2000/svg" viewBox="0 0 2160 2160"><defs><style>.cls-1,.cls-2{fill:#fff;}.cls-2{opacity:.6;}.cls-3{fill:#cb2036;}</style></defs><g id="Layer_1-2"><g><rect class="cls-3" width="2160" height="2160" rx="500" ry="500"/><g><path class="cls-1" d="M1589.98334,1436.08386l-297.63428-297.63477-.00024-.00037c-30.2063,55.56519-72.11353,103.84717-122.41284,141.5415l288.07031,288.07043,285.70557,285.70532,65.98828-65.9884,65.98828-65.98816-285.70508-285.70557Z"/><circle class="cls-2" cx="908.06158" cy="929.98401" r="437.10638"/><path class="cls-1" d="M1292.34882,1138.44873c-74.03784,136.19446-218.36621,228.6416-384.28723,228.6416-241.4071,0-437.10632-195.69922-437.10632-437.10632s195.69922-437.10638,437.10632-437.10638c165.91992,0,310.24744,92.44592,384.28577,228.6391l135.87451-135.87305c-111.69409-168.3866-302.9585-279.40967-520.16028-279.40967-344.48767,0-623.75,279.26239-623.75,623.75s279.26233,623.75,623.75,623.75c217.20227,0,408.46716-111.02368,520.16101-279.41101l-135.87378-135.87427Z"/></g></g></g></svg>