<svg id="visual" viewBox="0 0 960 100" width="960" height="100" xmlns="http://www.w3.org/2000/svg" xmlns:xlink="http://www.w3.org/1999/xlink" version="1.1"><path d="M0 40L22.8 40.2C45.7 40.3 91.3 40.7 137 40C182.7 39.3 228.3 37.7 274 33.7C319.7 29.7 365.3 23.3 411.2 23.2C457 23 503 29 548.8 30C594.7 31 640.3 27 686 25C731.7 23 777.3 23 823 25.5C868.7 28 914.3 33 937.2 35.5L960 38L960 101L937.2 101C914.3 101 868.7 101 823 101C777.3 101 731.7 101 686 101C640.3 101 594.7 101 548.8 101C503 101 457 101 411.2 101C365.3 101 319.7 101 274 101C228.3 101 182.7 101 137 101C91.3 101 45.7 101 22.8 101L0 101Z" fill="#2925a4"></path><path d="M0 37L22.8 40.7C45.7 44.3 91.3 51.7 137 52C182.7 52.3 228.3 45.7 274 42.8C319.7 40 365.3 41 411.2 42.5C457 44 503 46 548.8 47.3C594.7 48.7 640.3 49.3 686 48C731.7 46.7 777.3 43.3 823 44.3C868.7 45.3 914.3 50.7 937.2 53.3L960 56L960 101L937.2 101C914.3 101 868.7 101 823 101C777.3 101 731.7 101 686 101C640.3 101 594.7 101 548.8 101C503 101 457 101 411.2 101C365.3 101 319.7 101 274 101C228.3 101 182.7 101 137 101C91.3 101 45.7 101 22.8 101L0 101Z" fill="#18158e"></path><path d="M0 70L22.8 69.5C45.7 69 91.3 68 137 67.8C182.7 67.7 228.3 68.3 274 68.3C319.7 68.3 365.3 67.7 411.2 64.3C457 61 503 55 548.8 53C594.7 51 640.3 53 686 55.8C731.7 58.7 777.3 62.3 823 61C868.7 59.7 914.3 53.3 937.2 50.2L960 47L960 101L937.2 101C914.3 101 868.7 101 823 101C777.3 101 731.7 101 686 101C640.3 101 594.7 101 548.8 101C503 101 457 101 411.2 101C365.3 101 319.7 101 274 101C228.3 101 182.7 101 137 101C91.3 101 45.7 101 22.8 101L0 101Z" fill="#000479"></path><path d="M0 62L22.8 63.7C45.7 65.3 91.3 68.7 137 71C182.7 73.3 228.3 74.7 274 74.3C319.7 74 365.3 72 411.2 70.8C457 69.7 503 69.3 548.8 71C594.7 72.7 640.3 76.3 686 75.7C731.7 75 777.3 70 823 68.2C868.7 66.3 914.3 67.7 937.2 68.3L960 69L960 101L937.2 101C914.3 101 868.7 101 823 101C777.3 101 731.7 101 686 101C640.3 101 594.7 101 548.8 101C503 101 457 101 411.2 101C365.3 101 319.7 101 274 101C228.3 101 182.7 101 137 101C91.3 101 45.7 101 22.8 101L0 101Z" fill="#000b6b"></path><path d="M0 90L22.8 88.5C45.7 87 91.3 84 137 82.2C182.7 80.3 228.3 79.7 274 79.7C319.7 79.7 365.3 80.3 411.2 81.7C457 83 503 85 548.8 86.2C594.7 87.3 640.3 87.7 686 87.7C731.7 87.7 777.3 87.3 823 87.5C868.7 87.7 914.3 88.3 937.2 88.7L960 89L960 101L937.2 101C914.3 101 868.7 101 823 101C777.3 101 731.7 101 686 101C640.3 101 594.7 101 548.8 101C503 101 457 101 411.2 101C365.3 101 319.7 101 274 101C228.3 101 182.7 101 137 101C91.3 101 45.7 101 22.8 101L0 101Z" fill="#000e5c"></path></svg>