<svg id="visual" viewBox="0 0 960 200" width="960" height="200" xmlns="http://www.w3.org/2000/svg" xmlns:xlink="http://www.w3.org/1999/xlink" version="1.1"><path d="M0 81L22.8 81.2C45.7 81.3 91.3 81.7 137 80.3C182.7 79 228.3 76 274 68.3C319.7 60.7 365.3 48.3 411.2 48.2C457 48 503 60 548.8 62C594.7 64 640.3 56 686 51.8C731.7 47.7 777.3 47.3 823 52.2C868.7 57 914.3 67 937.2 72L960 77L960 201L937.2 201C914.3 201 868.7 201 823 201C777.3 201 731.7 201 686 201C640.3 201 594.7 201 548.8 201C503 201 457 201 411.2 201C365.3 201 319.7 201 274 201C228.3 201 182.7 201 137 201C91.3 201 45.7 201 22.8 201L0 201Z" fill="#2925a4"></path><path d="M0 75L22.8 82.3C45.7 89.7 91.3 104.3 137 105C182.7 105.7 228.3 92.3 274 86.7C319.7 81 365.3 83 411.2 85.8C457 88.7 503 92.3 548.8 94.8C594.7 97.3 640.3 98.7 686 96.3C731.7 94 777.3 88 823 90.2C868.7 92.3 914.3 102.7 937.2 107.8L960 113L960 201L937.2 201C914.3 201 868.7 201 823 201C777.3 201 731.7 201 686 201C640.3 201 594.7 201 548.8 201C503 201 457 201 411.2 201C365.3 201 319.7 201 274 201C228.3 201 182.7 201 137 201C91.3 201 45.7 201 22.8 201L0 201Z" fill="#18158e"></path><path d="M0 140L22.8 139.2C45.7 138.3 91.3 136.7 137 136.5C182.7 136.3 228.3 137.7 274 137.5C319.7 137.3 365.3 135.7 411.2 129C457 122.3 503 110.7 548.8 106.8C594.7 103 640.3 107 686 112.7C731.7 118.3 777.3 125.7 823 123C868.7 120.3 914.3 107.7 937.2 101.3L960 95L960 201L937.2 201C914.3 201 868.7 201 823 201C777.3 201 731.7 201 686 201C640.3 201 594.7 201 548.8 201C503 201 457 201 411.2 201C365.3 201 319.7 201 274 201C228.3 201 182.7 201 137 201C91.3 201 45.7 201 22.8 201L0 201Z" fill="#000479"></path><path d="M0 125L22.8 128.3C45.7 131.7 91.3 138.3 137 143.2C182.7 148 228.3 151 274 150.2C319.7 149.3 365.3 144.7 411.2 142.2C457 139.7 503 139.3 548.8 142.8C594.7 146.3 640.3 153.7 686 152.5C731.7 151.3 777.3 141.7 823 138C868.7 134.3 914.3 136.7 937.2 137.8L960 139L960 201L937.2 201C914.3 201 868.7 201 823 201C777.3 201 731.7 201 686 201C640.3 201 594.7 201 548.8 201C503 201 457 201 411.2 201C365.3 201 319.7 201 274 201C228.3 201 182.7 201 137 201C91.3 201 45.7 201 22.8 201L0 201Z" fill="#000b6b"></path><path d="M0 182L22.8 178.8C45.7 175.7 91.3 169.3 137 165.5C182.7 161.7 228.3 160.3 274 160.3C319.7 160.3 365.3 161.7 411.2 164.3C457 167 503 171 548.8 173.3C594.7 175.7 640.3 176.3 686 176.3C731.7 176.3 777.3 175.7 823 175.8C868.7 176 914.3 177 937.2 177.5L960 178L960 201L937.2 201C914.3 201 868.7 201 823 201C777.3 201 731.7 201 686 201C640.3 201 594.7 201 548.8 201C503 201 457 201 411.2 201C365.3 201 319.7 201 274 201C228.3 201 182.7 201 137 201C91.3 201 45.7 201 22.8 201L0 201Z" fill="#000e5c"></path></svg>