<svg id="visual" viewBox="0 0 960 300" width="960" height="300" xmlns="http://www.w3.org/2000/svg" xmlns:xlink="http://www.w3.org/1999/xlink" version="1.1"><path d="M0 122L22.8 122.3C45.7 122.7 91.3 123.3 137 121.3C182.7 119.3 228.3 114.7 274 103C319.7 91.3 365.3 72.7 411.2 72.3C457 72 503 90 548.8 93C594.7 96 640.3 84 686 77.8C731.7 71.7 777.3 71.3 823 78.8C868.7 86.3 914.3 101.7 937.2 109.3L960 117L960 301L937.2 301C914.3 301 868.7 301 823 301C777.3 301 731.7 301 686 301C640.3 301 594.7 301 548.8 301C503 301 457 301 411.2 301C365.3 301 319.7 301 274 301C228.3 301 182.7 301 137 301C91.3 301 45.7 301 22.8 301L0 301Z" fill="#2925a4"></path><path d="M0 113L22.8 124C45.7 135 91.3 157 137 158C182.7 159 228.3 139 274 130.5C319.7 122 365.3 125 411.2 129.3C457 133.7 503 139.3 548.8 143.2C594.7 147 640.3 149 686 145.3C731.7 141.7 777.3 132.3 823 135.3C868.7 138.3 914.3 153.7 937.2 161.3L960 169L960 301L937.2 301C914.3 301 868.7 301 823 301C777.3 301 731.7 301 686 301C640.3 301 594.7 301 548.8 301C503 301 457 301 411.2 301C365.3 301 319.7 301 274 301C228.3 301 182.7 301 137 301C91.3 301 45.7 301 22.8 301L0 301Z" fill="#18158e"></path><path d="M0 211L22.8 209.7C45.7 208.3 91.3 205.7 137 205.3C182.7 205 228.3 207 274 206.8C319.7 206.7 365.3 204.3 411.2 194.3C457 184.3 503 166.7 548.8 160.8C594.7 155 640.3 161 686 169.7C731.7 178.3 777.3 189.7 823 185.7C868.7 181.7 914.3 162.3 937.2 152.7L960 143L960 301L937.2 301C914.3 301 868.7 301 823 301C777.3 301 731.7 301 686 301C640.3 301 594.7 301 548.8 301C503 301 457 301 411.2 301C365.3 301 319.7 301 274 301C228.3 301 182.7 301 137 301C91.3 301 45.7 301 22.8 301L0 301Z" fill="#000479"></path><path d="M0 187L22.8 192.3C45.7 197.7 91.3 208.3 137 215.7C182.7 223 228.3 227 274 225.7C319.7 224.3 365.3 217.7 411.2 214C457 210.3 503 209.7 548.8 214.8C594.7 220 640.3 231 686 229.2C731.7 227.3 777.3 212.7 823 207.3C868.7 202 914.3 206 937.2 208L960 210L960 301L937.2 301C914.3 301 868.7 301 823 301C777.3 301 731.7 301 686 301C640.3 301 594.7 301 548.8 301C503 301 457 301 411.2 301C365.3 301 319.7 301 274 301C228.3 301 182.7 301 137 301C91.3 301 45.7 301 22.8 301L0 301Z" fill="#000b6b"></path><path d="M0 273L22.8 268.3C45.7 263.7 91.3 254.3 137 248.7C182.7 243 228.3 241 274 240.8C319.7 240.7 365.3 242.3 411.2 246.5C457 250.7 503 257.3 548.8 261C594.7 264.7 640.3 265.3 686 265.2C731.7 265 777.3 264 823 264.3C868.7 264.7 914.3 266.3 937.2 267.2L960 268L960 301L937.2 301C914.3 301 868.7 301 823 301C777.3 301 731.7 301 686 301C640.3 301 594.7 301 548.8 301C503 301 457 301 411.2 301C365.3 301 319.7 301 274 301C228.3 301 182.7 301 137 301C91.3 301 45.7 301 22.8 301L0 301Z" fill="#000e5c"></path></svg>